{
  "accessors": [
    {
      "bufferView": 2,
      "componentType": 5126,
      "count": 11460,
      "max": [
        6.627708435058594,
        14.071535110473633,
        37.23207092285156
      ],
      "min": [
        -6.639252662658691,
        -37.72024917602539,
        -0.07289886474609375
      ],
      "type": "VEC3"
    },
    {
      "bufferView": 2,
      "byteOffset": 137520,
      "componentType": 5126,
      "count": 11460,
      "max": [
        0.9999967813491821,
        0.9999974370002747,
        0.9995626211166382
      ],
      "min": [
        -0.9998911619186401,
        -0.9994829297065735,
        -0.9996710419654846
      ],
      "type": "VEC3"
    },
    {
      "bufferView": 1,
      "componentType": 5126,
      "count": 11460,
      "max": [
        0.994429886341095,
        0.9903283715248108
      ],
      "min": [
        0.004728198051452637,
        0.011250496841967106
      ],
      "type": "VEC2"
    },
    {
      "bufferView": 0,
      "componentType": 5125,
      "count": 11460,
      "type": "SCALAR"
    },
    {
      "bufferView": 2,
      "byteOffset": 275040,
      "componentType": 5126,
      "count": 246,
      "max": [
        6.131761074066162,
        -35.887062072753906,
        25.166988372802734
      ],
      "min": [
        -6.131761074066162,
        -38.538265228271484,
        17.36370849609375
      ],
      "type": "VEC3"
    },
    {
      "bufferView": 2,
      "byteOffset": 277992,
      "componentType": 5126,
      "count": 246,
      "max": [
        0.8236549496650696,
        -0.14212702214717865,
        0.5284569263458252
      ],
      "min": [
        -0.8236549496650696,
        -0.9396083354949951,
        -0.713566243648529
      ],
      "type": "VEC3"
    },
    {
      "bufferView": 1,
      "byteOffset": 91680,
      "componentType": 5126,
      "count": 246,
      "max": [
        0.5637102723121643,
        0.8645794987678528
      ],
      "min": [
        0.5590333938598633,
        0.8593164682388306
      ],
      "type": "VEC2"
    },
    {
      "bufferView": 0,
      "byteOffset": 45840,
      "componentType": 5125,
      "count": 246,
      "type": "SCALAR"
    }
  ],
  "asset": {
    "extras": {
      "author": "Oleg Shuldyakov (https://sketchfab.com/shuographics)",
      "license": "CC-BY-4.0 (http://creativecommons.org/licenses/by/4.0/)",
      "source": "https://sketchfab.com/3d-models/cat-low-polygon-art-farm-animal-f03d86cb6c7b4771b343525ed1161e7c",
      "title": "Cat Low Polygon Art Farm Animal"
    },
    "generator": "Sketchfab-12.67.0",
    "version": "2.0"
  },
  "bufferViews": [
    {
      "buffer": 0,
      "byteLength": 46824,
      "name": "floatBufferViews",
      "target": 34963
    },
    {
      "buffer": 0,
      "byteLength": 93648,
      "byteOffset": 46824,
      "byteStride": 8,
      "name": "floatBufferViews",
      "target": 34962
    },
    {
      "buffer": 0,
      "byteLength": 280944,
      "byteOffset": 140472,
      "byteStride": 12,
      "name": "floatBufferViews",
      "target": 34962
    }
  ],
  "buffers": [
    {
      "byteLength": 421416,
      "uri": "scene.bin"
    }
  ],
  "images": [
    {
      "uri": "textures/01_-_Default_baseColor.png"
    }
  ],
  "materials": [
    {
      "doubleSided": true,
      "emissiveFactor": [
        0.4,
        0.4,
        0.4
      ],
      "emissiveTexture": {
        "index": 0
      },
      "name": "01_-_Default",
      "pbrMetallicRoughness": {
        "baseColorTexture": {
          "index": 0
        },
        "metallicFactor": 0.94,
        "roughnessFactor": 0.41000000000000003
      }
    }
  ],
  "meshes": [
    {
      "name": "cat_01_color05_01 - Default_0",
      "primitives": [
        {
          "attributes": {
            "NORMAL": 1,
            "POSITION": 0,
            "TEXCOORD_0": 2
          },
          "indices": 3,
          "material": 0,
          "mode": 4
        }
      ]
    },
    {
      "name": "Object003_01 - Default_0",
      "primitives": [
        {
          "attributes": {
            "NORMAL": 5,
            "POSITION": 4,
            "TEXCOORD_0": 6
          },
          "indices": 7,
          "material": 0,
          "mode": 4
        }
      ]
    }
  ],
  "nodes": [
    {
      "children": [
        1
      ],
      "matrix": [
        1.0,
        0.0,
        0.0,
        0.0,
        0.0,
        2.220446049250313e-16,
        -1.0,
        0.0,
        0.0,
        1.0,
        2.220446049250313e-16,
        0.0,
        0.0,
        0.0,
        0.0,
        1.0
      ],
      "name": "Sketchfab_model"
    },
    {
      "children": [
        2
      ],
      "matrix": [
        1.0,
        0.0,
        0.0,
        0.0,
        0.0,
        0.0,
        1.0,
        0.0,
        0.0,
        -1.0,
        0.0,
        0.0,
        0.0,
        0.0,
        0.0,
        1.0
      ],
      "name": "cat_01_color05.FBX"
    },
    {
      "children": [
        3,
        6
      ],
      "name": "RootNode"
    },
    {
      "children": [
        4
      ],
      "matrix": [
        1.108698844909668,
        0.0,
        0.0,
        0.0,
        0.0,
        2.342332502173431e-16,
        -1.0548927783966064,
        0.0,
        0.0,
        1.0,
        2.220446049250313e-16,
        0.0,
        6.072902465348307e-07,
        6.072902465348307e-07,
        0.0,
        1.0
      ],
      "name": "cat_01_color05"
    },
    {
      "children": [
        5
      ],
      "matrix": [
        1.0,
        0.0,
        -0.0,
        0.0,
        0.0,
        1.0,
        0.0,
        0.0,
        0.0,
        0.0,
        1.0,
        0.0,
        0.0,
        13.893181800842285,
        0.0,
        1.0
      ],
      "name": "Object_4"
    },
    {
      "mesh": 0,
      "name": "cat_01_color05_01 - Default_0"
    },
    {
      "children": [
        7
      ],
      "matrix": [
        1.108698844909668,
        0.0,
        0.0,
        0.0,
        0.0,
        2.342332502173431e-16,
        -1.0548927783966064,
        0.0,
        0.0,
        1.0,
        2.220446049250313e-16,
        0.0,
        6.072902465348307e-07,
        6.072902465348307e-07,
        0.0,
        1.0
      ],
      "name": "Object003"
    },
    {
      "children": [
        8
      ],
      "matrix": [
        1.0,
        0.0,
        -0.0,
        0.0,
        0.0,
        1.0,
        0.0,
        0.0,
        0.0,
        0.0,
        1.0,
        0.0,
        0.0,
        13.893181800842285,
        0.0,
        1.0
      ],
      "name": "Object_7"
    },
    {
      "mesh": 1,
      "name": "Object003_01 - Default_0"
    }
  ],
  "samplers": [
    {
      "magFilter": 9729,
      "minFilter": 9987,
      "wrapS": 10497,
      "wrapT": 10497
    }
  ],
  "scene": 0,
  "scenes": [
    {
      "name": "Sketchfab_Scene",
      "nodes": [
        0
      ]
    }
  ],
  "textures": [
    {
      "sampler": 0,
      "source": 0
    }
  ]
}
